<svg width="842" height="104" viewBox="0 0 842 104" fill="none" xmlns="http://www.w3.org/2000/svg">
<path d="M191.57 38.1201H122.17V103.06H141.85V78.0601H193.05C207.22 78.0601 215.05 73.1901 215.05 61.7701V54.5801C214.84 44.0001 206 38.1201 191.57 38.1201ZM198.12 58.8501H197.91C197.91 63.5001 197.07 66.0401 189.45 66.0401H141.85L142.06 49.1201H188.6C197.07 49.1201 198.12 51.6601 198.12 56.1201V58.8501Z" fill="white"/>
<path d="M260.32 49.9601L280.42 77.6801H238.53L228.17 88.6801H288.67L299.04 103.06H322.31L272.17 35.3701L260.32 49.9601Z" fill="white"/>
<path d="M628.22 54.1901L605.8 38.1201H574.91L611.3 64.7701C616.58 61.1801 622.72 57.3701 628.22 54.1901Z" fill="white"/>
<path d="M76.69 63.2899H20.42V49.2899H93C91.1 43.3599 85 37.8599 74.17 37.8599H21.47C9.41003 37.8599 2.47003 42.3099 2.47003 52.0399V62.3999C2.47003 70.8699 9.67003 75.7299 20.24 75.7299H77.15V90.5399H0.530029C2.43003 98.5399 8.53003 102.81 19.53 102.81H76.9C88.96 102.81 94.9 98.1599 94.9 88.2099V77.8899C94.88 68.7899 87.9 63.9299 76.69 63.2899Z" fill="white"/>
<path d="M360 49.3299H433.62C431.71 41.7099 424.31 37.8999 413.73 37.8999H358.73C349.21 37.8999 340.11 41.7099 340.11 52.0799V88.4699C340.11 98.8299 349.21 102.64 358.73 102.64H414.37C427.06 102.64 431.5 99.0399 433.62 90.3699H360V49.3299Z" fill="white"/>
<path d="M635 82.7501L662.5 102.85H693.6L650.66 71.3301C645.36 74.9301 640.07 79.0001 635 82.7501Z" fill="white"/>
<path d="M551.21 38.1201H462.57V49.5401H551.21V38.1201Z" fill="white"/>
<path d="M480.34 70.9101H519.9V59.9102H460.46V103.06H548.25V90.7901H480.34V70.9101Z" fill="white"/>
<path d="M576.39 99.47L572.79 102.85H604.1C688.73 18 810.37 3 841.47 0.25C672.22 10 594 82.33 576.39 99.47Z" fill="white"/>
</svg>
